<svg xmlns="http://www.w3.org/2000/svg" viewBox="0 0 247.42 189.49"><defs><style>.a{fill:#be1e2d;}.b{fill:none;stroke:#231f20;stroke-miterlimit:10;stroke-width:11px;}</style></defs><path class="a" d="M109.17,143.09s-33.44,3.85-49.3-9.85c-17.71-15.3-9-44.28-7.58-48.84C58,66.61,60.47,54.66,57.52,44.8c-4.09-13.74-10.69-12.08-10.2-12.92S63.83,30.75,76,37.05c4.69,2.43,16.87,8.73,23.48,22.68,7.32,15.45,4.9,31.42,3.5,37.27-3.29,13.69-4.69,19.52-3.16,28.12C102.11,138,109.18,142.43,109.17,143.09Z"/><path class="a" d="M114.22,139s-7.63-15.65-6.74-25.82c.41-4.59,4.58-12.23,5.34-23.42.39-5.71-.23-9.57-3.06-19-2.32-7.72-5.29-12.85-4.39-11.91,2.06,2.12,12.42,6.5,19,17.53,7.61,12.82,7.37,25.58,6.74,28.31C127.1,122,114.22,139,114.22,139Z"/><path class="b" d="M30.57,155.06s154.47.33,168.54,0,39-10.55-8.83-44.84"/></svg>