<svg xmlns="http://www.w3.org/2000/svg" viewBox="0 0 473.61 231.71"><defs><style>.a{fill:#be1e2d;}.b{font-size:70px;fill:#231f20;font-family:FranklinGothic-HeavyItalic, Franklin Gothic Heavy;font-weight:800;font-style:italic;letter-spacing:0.09em;}.c{fill:none;stroke:#231f20;stroke-miterlimit:10;stroke-width:11px;}</style></defs><path class="a" d="M219.37,126.14s-33.44,3.84-49.3-9.85C152.36,101,161,72,162.49,67.45c5.72-17.79,8.18-29.74,5.24-39.6-4.1-13.75-10.7-12.08-10.21-12.92S174,13.8,186.2,20.1c4.69,2.43,16.87,8.72,23.48,22.68,7.32,15.45,4.91,31.42,3.5,37.27-3.28,13.69-4.68,19.52-3.15,28.12C212.31,121,219.38,125.48,219.37,126.14Z"/><path class="a" d="M224.42,122.07s-7.63-15.65-6.73-25.82c.4-4.6,4.57-12.23,5.33-23.43.39-5.71-.23-9.56-3.05-18.95-2.33-7.72-5.29-12.85-4.4-11.92,2.06,2.13,12.42,6.51,19,17.54,7.61,12.82,7.37,25.58,6.74,28.31C237.3,105,224.42,122.07,224.42,122.07Z"/><text class="b" transform="translate(12.35 214.91)">BÅLPULKEN</text><path class="c" d="M140.77,138.11s154.47.33,168.55,0,39-10.55-8.84-44.84"/></svg>