<svg xmlns="http://www.w3.org/2000/svg" viewBox="0 0 469.23 227.68"><defs><style>.a,.b{fill:#231f20;}.b{font-size:70px;font-family:FranklinGothic-HeavyItalic, Franklin Gothic Heavy;font-weight:800;font-style:italic;letter-spacing:0.09em;}.c{fill:none;stroke:#231f20;stroke-miterlimit:10;stroke-width:11px;}</style></defs><path class="a" d="M216.38,122.1s-33.44,3.85-49.29-9.85C149.38,97,158,68,159.51,63.42c5.71-17.8,8.17-29.74,5.23-39.61-4.1-13.74-10.7-12.08-10.2-12.92s16.5-1.13,28.68,5.17c4.69,2.43,16.86,8.73,23.47,22.68C214,54.19,211.6,70.16,210.2,76c-3.29,13.69-4.69,19.52-3.16,28.12C209.33,117,216.4,121.44,216.38,122.1Z"/><path class="a" d="M221.43,118s-7.63-15.65-6.73-25.82c.4-4.59,4.57-12.23,5.34-23.42.38-5.71-.23-9.56-3.06-19-2.33-7.71-5.29-12.84-4.39-11.91,2,2.13,12.41,6.51,18.95,17.53,7.61,12.82,7.38,25.58,6.75,28.31C234.31,101,221.43,118,221.43,118Z"/><text class="b" transform="translate(9.37 210.87)">BÅLPULKEN</text><path class="c" d="M137.78,134.07s154.48.33,168.55,0,39-10.55-8.84-44.83"/></svg>