<svg xmlns="http://www.w3.org/2000/svg" viewBox="0 0 577.31 105.05"><defs><style>.a,.b{fill:#231f20;}.b{font-size:70px;font-family:FranklinGothic-HeavyItalic, Franklin Gothic Heavy;font-weight:800;font-style:italic;letter-spacing:0.09em;}.c{fill:none;stroke:#231f20;stroke-miterlimit:10;stroke-width:7px;}</style></defs><path class="a" d="M59.17,79.73S40,81.94,30.85,74.07C20.68,65.28,25.65,48.63,26.49,46c3.29-10.22,4.7-17.08,3-22.75-2.35-7.89-6.14-6.94-5.86-7.42s9.48-.65,16.48,3c2.69,1.39,9.69,5,13.48,13,4.21,8.88,2.82,18.05,2,21.41-1.89,7.87-2.7,11.21-1.82,16.16C55.12,76.79,59.18,79.35,59.17,79.73Z"/><path class="a" d="M62.07,77.39s-4.38-9-3.87-14.83c.24-2.64,2.63-7,3.07-13.46.22-3.28-.13-5.49-1.76-10.89-1.33-4.43-3-7.38-2.52-6.84,1.18,1.22,7.13,3.74,10.89,10.07,4.37,7.36,4.24,14.7,3.87,16.26C69.47,67.6,62.07,77.39,62.07,77.39Z"/><text class="b" transform="translate(91.7 76.47)">BÅLPULKEN</text><path class="c" d="M12.41,89.21s533.83-.18,541.92-.37,22.39-6.06-5.08-25.75"/></svg>