<svg xmlns="http://www.w3.org/2000/svg" viewBox="0 0 247.42 176.02"><defs><style>.a{fill:#231f20;}.b{fill:none;stroke:#231f20;stroke-miterlimit:10;stroke-width:11px;}</style></defs><path class="a" d="M109.17,134.53s-33.44,3.84-49.3-9.85c-17.71-15.3-9-44.29-7.58-48.84C58,58.05,60.47,46.1,57.52,36.24,53.43,22.5,46.83,24.16,47.32,23.32S63.83,22.19,76,28.49c4.69,2.43,16.87,8.72,23.48,22.68,7.32,15.45,4.9,31.42,3.5,37.27-3.29,13.69-4.69,19.52-3.16,28.12C102.11,129.42,109.18,133.87,109.17,134.53Z"/><path class="a" d="M114.22,130.46s-7.63-15.65-6.74-25.82c.41-4.6,4.58-12.23,5.34-23.43.39-5.71-.23-9.56-3.06-18.95-2.32-7.72-5.29-12.85-4.39-11.92,2.06,2.13,12.42,6.51,19,17.54,7.61,12.82,7.37,25.58,6.74,28.31C127.1,113.41,114.22,130.46,114.22,130.46Z"/><path class="b" d="M30.57,146.5s154.47.33,168.54,0,39-10.55-8.83-44.84"/></svg>