<svg xmlns="http://www.w3.org/2000/svg" viewBox="0 0 577.31 106.04"><defs><style>.a{fill:#be1e2d;}.b{font-size:70px;fill:#231f20;font-family:FranklinGothic-HeavyItalic, Franklin Gothic Heavy;font-weight:800;font-style:italic;letter-spacing:0.09em;}.c{fill:none;stroke:#231f20;stroke-miterlimit:10;stroke-width:7px;}</style></defs><path class="a" d="M59.17,79.49S40,81.7,30.85,73.83C20.68,65,25.65,48.39,26.49,45.77c3.29-10.22,4.7-17.08,3-22.75-2.35-7.9-6.14-6.94-5.86-7.42s9.48-.65,16.48,3c2.69,1.39,9.69,5,13.48,13,4.21,8.87,2.82,18,2,21.41-1.89,7.86-2.7,11.21-1.82,16.15C55.12,76.55,59.18,79.11,59.17,79.49Z"/><path class="a" d="M62.07,77.15s-4.38-9-3.87-14.83c.24-2.64,2.63-7,3.07-13.46.22-3.28-.13-5.49-1.76-10.89-1.33-4.43-3-7.38-2.52-6.85,1.18,1.23,7.13,3.74,10.89,10.08,4.37,7.36,4.24,14.69,3.87,16.26C69.47,67.35,62.07,77.15,62.07,77.15Z"/><text class="b" transform="translate(91.7 76.23)">BÅLPULKEN</text><path class="c" d="M12.41,89s533.83-.18,541.92-.37,22.39-6.06-5.08-25.76"/></svg>